<?xml version="1.0" encoding="UTF-8" standalone="no"?>
<svg
   xmlns:dc="http://purl.org/dc/elements/1.1/"
   xmlns:cc="http://creativecommons.org/ns#"
   xmlns:rdf="http://www.w3.org/1999/02/22-rdf-syntax-ns#"
   xmlns:svg="http://www.w3.org/2000/svg"
   xmlns="http://www.w3.org/2000/svg"
   xmlns:sodipodi="http://sodipodi.sourceforge.net/DTD/sodipodi-0.dtd"
   xmlns:inkscape="http://www.inkscape.org/namespaces/inkscape"
   width="1152"
   height="240.17578"
   viewBox="0 0 1152 240.17578"
   fill="none"
   version="1.1"
   id="svg835"
   sodipodi:docname="clouds.svg"
   inkscape:version="1.0.1 (c497b03c, 2020-09-10)">
  <metadata
     id="metadata841">
    <rdf:RDF>
      <cc:Work
         rdf:about="">
        <dc:format>image/svg+xml</dc:format>
        <dc:type
           rdf:resource="http://purl.org/dc/dcmitype/StillImage" />
        <dc:title></dc:title>
      </cc:Work>
    </rdf:RDF>
  </metadata>
  <defs
     id="defs839" />
  <sodipodi:namedview
     pagecolor="#ffffff"
     bordercolor="#666666"
     borderopacity="1"
     objecttolerance="10"
     gridtolerance="10"
     guidetolerance="10"
     inkscape:pageopacity="0"
     inkscape:pageshadow="2"
     inkscape:window-width="1680"
     inkscape:window-height="1050"
     id="namedview837"
     showgrid="false"
     inkscape:snap-page="true"
     fit-margin-top="0"
     fit-margin-left="0"
     fit-margin-right="0"
     fit-margin-bottom="0"
     inkscape:zoom="0.58911826"
     inkscape:cx="459.77932"
     inkscape:cy="156.66869"
     inkscape:window-x="0"
     inkscape:window-y="0"
     inkscape:window-maximized="0"
     inkscape:current-layer="svg835" />
  <path
     id="rect843"
     style="fill:#fff;fill-opacity:1;stroke:none;stroke-width:5.00032;stroke-linecap:round;stroke-linejoin:round;stroke-dasharray:10.0006, 10.0006"
     d="m 1068,0 c -66.17,0 -120,51.98526 -120,115.88086 0,0.396 6.3e-4,0.80517 0.0156,1.20117 -17.89199,2.91 -34.18659,10.93408 -47.05859,22.45508 -21.357,-18.882 -49.78803,-30.41602 -80.95703,-30.41601 -42.832,0 -81.38673,21.62681 -102.80273,56.38281 -14.077,-8.416 -30.30727,-12.92774 -47.19727,-12.92774 -42.56,0 -78.30372,28.66283 -87.63672,67.04883 -12.312,-9.628 -27.23364,-16.25522 -43.43164,-18.69922 -6.724,-41.559 -44.03464,-73.45703 -88.93164,-73.45703 -16.89,0 -33.12027,4.51269 -47.19727,12.92969 C 381.38673,105.64244 342.832,84.013672 300,84.013672 c -32.957,0 -62.8535,12.895981 -84.5625,33.738278 C 199.9905,105.71295 180.353,98.498047 159,98.498047 c -16.89,0 -33.12027,4.512693 -47.19727,12.929693 C 90.386734,76.671435 51.832,55.042969 9,55.042969 c -3.0274899,0 -6.0281289,0.112347 -9,0.326172 V 240.17578 H 1152 V 33.177735 C 1130.0893,12.272636 1100.2574,0 1068,0 Z" />
</svg>
