<svg xmlns="http://www.w3.org/2000/svg" version="1.1" xmlns:xlink="http://www.w3.org/1999/xlink" xmlns:svgjs="http://svgjs.com/svgjs" width="409.84338" height="409.84338"><svg xmlns:dc="http://purl.org/dc/elements/1.1/" xmlns:cc="http://creativecommons.org/ns#" xmlns:rdf="http://www.w3.org/1999/02/22-rdf-syntax-ns#" xmlns:svg="http://www.w3.org/2000/svg" xmlns="http://www.w3.org/2000/svg" xmlns:sodipodi="http://sodipodi.sourceforge.net/DTD/sodipodi-0.dtd" xmlns:inkscape="http://www.inkscape.org/namespaces/inkscape" version="1.1" id="SvgjsSvg1012" xml:space="preserve" width="409.84338" height="409.84338" viewBox="0 0 409.84338 409.84337" sodipodi:docname="EAA_logo_black-eps.svg" inkscape:version="1.0.1 (c497b03c, 2020-09-10)"><metadata id="SvgjsMetadata1011"><rdf:rdf><cc:work rdf:about=""><dc:format>image/svg+xml</dc:format><dc:type rdf:resource="http://purl.org/dc/dcmitype/StillImage"></dc:type><dc:title></dc:title></cc:work></rdf:rdf></metadata><defs id="SvgjsDefs1010"></defs><sodipodi:namedview pagecolor="#ffffff" bordercolor="#666666" borderopacity="1" objecttolerance="10" gridtolerance="10" guidetolerance="10" inkscape:pageopacity="0" inkscape:pageshadow="2" inkscape:window-width="1680" inkscape:window-height="1050" id="SvgjsSodipodi:namedview1009" inkscape:document-rotation="0" showgrid="false" fit-margin-top="0" fit-margin-left="0" fit-margin-right="0" fit-margin-bottom="0" inkscape:zoom="1.2288341" inkscape:cx="203.1401" inkscape:cy="118.02532" inkscape:window-x="0" inkscape:window-y="0" inkscape:window-maximized="0" inkscape:current-layer="g12"></sodipodi:namedview><g id="SvgjsG1008" inkscape:groupmode="layer" inkscape:label="ink_ext_XXXXXX" transform="matrix(1.3333333,0,0,-1.3333333,-3.5598932,236.04533)"><g id="SvgjsG1007" transform="scale(0.1)"><g id="SvgjsG1006" transform="translate(0,-781.92221)"><path d="m 3099.79,1061.98 c -11.17,185.18 -197.92,415.63 -486.99,532.95 -14.68,-14.45 -33.2,-29.71 -53.75,-45 282.54,-108.11 472.74,-339.1 474.3,-505.25 2.03,-222.742 -260.85,-505.051 -704.57,-513.821 l -16.49,-106.621 c 496.25,47.871 805.36,342.09 787.5,637.742" style="fill:#231f20;fill-opacity:1;fill-rule:nonzero;stroke:none" id="SvgjsPath1005"></path><path d="m 2414.48,1669.87 c -221.99,-76.11 -327.65,-136.15 -501.05,-202.95 l -77.42,-25.84 -609.12,44.47 -115.29,-44.14 352.2,-128.53 c -51.72,-26.68 -251.14,-111.39 -585.206,-127.33 l -0.211,0.04 c -382.758,-14.07 -683.317,95.28 -402.836,299.14 l 0.078,0.04 c 222.207,152.41 611.655,223.65 1088.155,223.65 240.78,0 471.6,-23.49 672.23,-65.01 31.95,12.89 66.4,26.25 104.21,40.05 -225.43,55.36 -492.42,86.88 -776.44,86.88 -488.14,0 -873.382,-83.93 -1111.124,-234.63 l -0.144,-0.03 C 90.1211,1302.54 445.43,1069.79 949.668,1075.85 l 0.332,0.01 c 380.78,12.03 609.82,91.83 730.93,125.75 l 364.1,-154.87 66.6,23.79 -73.55,209.11 -207.07,-48.21 -5.82,7.85 c 0,0 398.94,175.41 488.86,221.31 209.1,106.76 288.79,179.61 316.6,212.11 24.85,29.01 -60,50.71 -216.17,-2.83" style="fill:#231f20;fill-opacity:1;fill-rule:nonzero;stroke:none" id="SvgjsPath1004"></path><path d="M 1320.41,944.676 656.52,264.609 H 865.699 L 1364.94,776 1318.65,535.93 H 1190.14 L 1079.61,421.309 h 220.92 l -22.35,-156.7 h 215.05 l 107.54,680.067 h -280.36" style="fill:#231f20;fill-opacity:1;fill-rule:nonzero;stroke:none" id="SvgjsPath1003"></path><path d="M 2184.13,944.676 1520.26,264.609 h 209.18 L 2228.66,776 2182.37,535.93 H 2053.9 L 1943.31,421.309 h 220.98 l -22.35,-156.7 h 215.04 l 107.54,680.067 h -280.39" style="fill:#231f20;fill-opacity:1;fill-rule:nonzero;stroke:none" id="SvgjsPath1002"></path><path d="M 844.629,829.359 915.098,943.988 394.121,942.977 26.6992,264.609 H 624.898 l 70.493,114.59 h -365.45 l 82.797,153.563 h 241.621 l 65.309,115.449 H 474.98 l 97.7,181.148 h 271.949" style="fill:#231f20;fill-opacity:1;fill-rule:nonzero;stroke:none" id="SvgjsPath1001"></path><path d="m 2495.23,324.559 h 4.94 c 6.71,0 10.59,2.461 10.59,6.703 0,4.59 -3.88,7.039 -9.88,7.039 -2.12,0 -4.24,-0.352 -5.65,-0.352 z m -0.7,-31.75 h -17.28 v 55.382 c 3.88,0.707 13.39,2.11 24.68,2.11 13.06,0 18.35,-1.762 22.58,-4.571 3.54,-2.128 5.99,-6.359 5.99,-12.011 0,-5.629 -5.29,-10.559 -12.7,-12.688 v -0.691 c 6.01,-1.77 9.53,-6.36 11.29,-14.129 1.76,-8.109 2.82,-11.641 3.88,-13.402 h -19.03 c -1.76,2.121 -2.83,6.703 -4.24,12 -1.07,5.64 -3.88,8.101 -9.53,8.101 h -5.64 z m -36.33,28.222 c 0,-25.051 18.69,-45.492 44.09,-45.492 25.4,-0.348 44.08,20.441 44.08,45.852 0,25.031 -18.68,45.839 -44.44,45.839 -25.04,0 -43.73,-20.808 -43.73,-46.199 z m 106.52,0.36 c 0,-33.871 -27.16,-61.032 -62.43,-61.032 -34.56,0 -62.79,27.161 -62.79,61.032 0,33.5 28.23,61.019 63.15,61.019 34.91,0 62.07,-27.519 62.07,-61.019" style="fill:#231f20;fill-opacity:1;fill-rule:nonzero;stroke:none" id="SvgjsPath1000"></path></g></g></g></svg><style>@media (prefers-color-scheme: light) { :root { filter: none; } }
@media (prefers-color-scheme: dark) { :root { filter: contrast(0.3846153846153846) brightness(4.5); } }
</style></svg>