<?xml version="1.0" encoding="UTF-8" standalone="no"?>
<svg
   xmlns:dc="http://purl.org/dc/elements/1.1/"
   xmlns:cc="http://creativecommons.org/ns#"
   xmlns:rdf="http://www.w3.org/1999/02/22-rdf-syntax-ns#"
   xmlns:svg="http://www.w3.org/2000/svg"
   xmlns="http://www.w3.org/2000/svg"
   xmlns:sodipodi="http://sodipodi.sourceforge.net/DTD/sodipodi-0.dtd"
   xmlns:inkscape="http://www.inkscape.org/namespaces/inkscape"
   version="1.1"
   width="450"
   height="450"
   id="svg848"
   sodipodi:docname="logo-outline.svg"
   inkscape:version="1.0.1 (c497b03c, 2020-09-10)"
   inkscape:export-filename="/Users/raymond/Desktop/eaa-chapter-174/public/img/logo-outline.png"
   inkscape:export-xdpi="106.67"
   inkscape:export-ydpi="106.67">
  <metadata
     id="metadata854">
    <rdf:RDF>
      <cc:Work
         rdf:about="">
        <dc:format>image/svg+xml</dc:format>
        <dc:type
           rdf:resource="http://purl.org/dc/dcmitype/StillImage" />
        <dc:title></dc:title>
      </cc:Work>
    </rdf:RDF>
  </metadata>
  <defs
     id="defs852" />
  <sodipodi:namedview
     pagecolor="#505050"
     bordercolor="#666666"
     borderopacity="1"
     objecttolerance="10"
     gridtolerance="10"
     guidetolerance="10"
     inkscape:pageopacity="0"
     inkscape:pageshadow="2"
     inkscape:window-width="980"
     inkscape:window-height="1052"
     id="namedview850"
     showgrid="false"
     inkscape:zoom="1.8398561"
     inkscape:cx="176.30728"
     inkscape:cy="239.68569"
     inkscape:window-x="0"
     inkscape:window-y="0"
     inkscape:window-maximized="0"
     inkscape:current-layer="SvgjsG1006"
     inkscape:document-rotation="0" />
  <svg
     version="1.1"
     id="SvgjsSvg1012"
     xml:space="preserve"
     width="409.84338"
     height="409.84338"
     viewBox="0 0 409.84338 409.84337"
     sodipodi:docname="EAA_logo_black-eps.svg"
     inkscape:version="1.0.1 (c497b03c, 2020-09-10)"><metadata
       id="SvgjsMetadata1011"><rdf:rdf><cc:work
           rdf:about=""><dc:format>image/svg+xml</dc:format><dc:type
             rdf:resource="http://purl.org/dc/dcmitype/StillImage" /><dc:title /></cc:work></rdf:rdf></metadata><defs
       id="SvgjsDefs1010" /><sodipodi:namedview
       pagecolor="#ffffff"
       bordercolor="#666666"
       borderopacity="1"
       objecttolerance="10"
       gridtolerance="10"
       guidetolerance="10"
       inkscape:pageopacity="0"
       inkscape:pageshadow="2"
       inkscape:window-width="1680"
       inkscape:window-height="1050"
       id="SvgjsSodipodi:namedview1009"
       inkscape:document-rotation="0"
       showgrid="false"
       fit-margin-top="0"
       fit-margin-left="0"
       fit-margin-right="0"
       fit-margin-bottom="0"
       inkscape:zoom="1.2288341"
       inkscape:cx="203.1401"
       inkscape:cy="118.02532"
       inkscape:window-x="0"
       inkscape:window-y="0"
       inkscape:window-maximized="0"
       inkscape:current-layer="g12" /><g
       id="SvgjsG1008"
       inkscape:groupmode="layer"
       inkscape:label="ink_ext_XXXXXX"
       transform="matrix(1.3333333,0,0,-1.3333333,-3.5598932,236.04533)"><g
         id="SvgjsG1007"
         transform="scale(0.1)"><g
           id="SvgjsG1006"
           transform="translate(0,-781.92221)"><path
             id="path857"
             style="fill:#ffffff;fill-opacity:1;fill-rule:nonzero;stroke:none;stroke-width:0.133333"
             d="m 2651.3336,84.345987 c -47.8824,0 -88.2032,38.466713 -88.2032,86.458993 0,47.78128 40.2986,86.43164 88.5703,86.43164 48.2656,0 87.4844,-39.19459 87.4844,-86.43164 0,-47.46111 -39.5274,-86.458993 -87.8515,-86.458993 z m -2475.58589,4.26172 a 25.423235,25.423235 0 0 0 -22.35157,37.527353 l 367.42579,678.35546 a 25.423235,25.423235 0 0 0 22.30273,13.3125 l 520.97264,1.00977 a 25.423235,25.423235 0 0 0 21.7031,-38.73437 L 1015.3258,665.45537 A 25.423235,25.423235 0 0 0 993.67154,653.3499 H 736.89615 L 666.62466,523.04717 h 202.09571 a 25.423235,25.423235 0 0 0 22.125,-37.9375 L 825.52896,369.65068 a 25.423235,25.423235 0 0 0 -22.125,-12.90234 H 576.96646 L 521.57388,254.02763 H 844.43326 A 25.423235,25.423235 0 0 0 866.0856,215.2874 l -4.79297,-7.79102 589.97257,604.34375 a 25.423235,25.423235 0 0 0 18.1894,7.66211 h 280.3711 a 25.423235,25.423235 0 0 0 25.1094,-29.39062 L 1674.6324,155.8792 2314.9957,811.84013 a 25.423235,25.423235 0 0 0 18.1894,7.66211 h 280.3848 a 25.423235,25.423235 0 0 0 25.1094,-29.39062 l -59.6465,-377.14844 c 370.2193,45.69192 579.6414,294.78044 577.9453,480.89061 -0.6922,73.4859 -45.0071,168.70231 -125.2344,257.59181 -80.2294,88.8918 -195.3261,171.5765 -332.7305,224.1523 a 25.423235,25.423235 0 0 0 -14.1836,33.9766 c -49.5816,-34.0129 -117.4093,-74.8542 -210.1699,-122.2148 -48.2994,-24.6547 -175.9045,-82.331 -289.3555,-132.959 a 25.423235,25.423235 0 0 0 25.8027,-16.918 l 73.5489,-209.10551 a 25.423235,25.423235 0 0 0 -15.4278,-32.375 l -66.5918,-23.789 a 25.423235,25.423235 0 0 0 -18.5019,0.5469 L 1828.3608,1024.0804 C 1707.0051,989.49839 1475.8939,911.79779 1100.2339,899.88119 l -0.3359,-0.016 a 25.423235,25.423235 0 0 0 -0.875,-0.025 c -256.10111,-3.0778 -474.57167,52.2072 -589.89644,145.90241 -57.66238,46.8476 -90.34411,107.7976 -78.69531,172.7734 11.6488,64.9758 63.57502,127.6003 157.38086,187.9492 a 25.423235,25.423235 0 0 0 1.86328,1.0899 c 244.59652,154.3596 632.75761,237.5318 1122.43741,237.6133 a 25.423235,25.423235 0 0 0 0.7129,0.01 c 285.9008,0 554.7278,-31.6776 782.5019,-87.6133 a 25.423235,25.423235 0 0 0 19.0586,-28.5371 c 13.2031,4.7065 26.8158,9.4712 40.9024,14.3008 80.4176,27.5697 142.9187,36.3821 185.8008,33.6934 21.441,-1.3444 38.064,-4.1828 52.7226,-15.3946 7.3293,-5.6059 14.5947,-15.4013 15.4863,-27.1972 0.8913,-11.7908 -4.3479,-21.9131 -10.2851,-28.8477 v 0 c -8.0764,-9.4381 -19.671,-21.4455 -35.9258,-35.8496 a 25.423235,25.423235 0 0 0 8.3203,-1.834 c 296.2824,-120.2471 490.6962,-354.0612 502.8164,-554.97461 v 0 C 3283.247,763.44729 3213.4272,615.76406 3084.6324,498.12724 2959.3077,383.65996 2777.8279,296.80792 2554.898,260.3499 L 2531.1304,110.05693 A 25.423235,25.423235 0 0 0 2506.0211,88.607707 H 2290.982 a 25.423235,25.423235 0 0 0 -25.166,29.009773 l 18.2148,127.68554 h -191.666 a 25.423235,25.423235 0 0 0 -25.418,25.38868 L 1896.6714,96.269817 a 25.423235,25.423235 0 0 0 -18.1894,-7.66211 h -209.1797 a 25.423235,25.423235 0 0 0 -13.5098,3.89063 25.423235,25.423235 0 0 0 -13.5156,-3.89063 h -215.0547 a 25.423235,25.423235 0 0 0 -25.166,29.009773 l 18.2149,127.68554 h -191.6075 a 25.423235,25.423235 0 0 0 -25.4179,25.41993 L 1032.941,96.269817 a 25.423235,25.423235 0 0 0 -18.1894,-7.66211 H 805.57193 a 25.423235,25.423235 0 0 0 -15.81055,5.51953 25.423235,25.423235 0 0 0 -15.81641,-5.51953 z m 2469.88079,74.685553 17.3691,17.36914 -10.418,10.41992 c -0.5404,0.0346 -1.0347,0.13867 -1.5976,0.13867 -7.7962,0 -13.7126,-4.04507 -16.5117,-10.99609 0.2144,-4.90098 4.0867,-12.39527 8.2461,-15.25586 1.0914,-0.7506 2.058,-1.28464 2.9121,-1.67578 z m 41.9902,53.01953 -0.9648,0.61133 c 0.2038,-0.12256 0.3755,-0.28181 0.5761,-0.4082 0.1157,-0.0748 0.2748,-0.12749 0.3887,-0.20313 z M 1339.9586,410.76592 h 106.75 l 26.2714,136.26171 z m 863.7324,0 h 106.7344 l 26.2792,136.2539 z M 956.78872,1059.3147 c 22.84063,-0.1294 46.12488,0.2286 69.71478,1.0957 a 25.423235,25.423235 0 0 0 1.0821,0.014 c 253.9336,12.2541 428.5421,64.8919 517.1894,99.6543 l -292.836,106.8652 a 25.423235,25.423235 0 0 0 -0.375,47.6211 l 115.2832,44.1368 a 25.423235,25.423235 0 0 0 10.9414,1.6132 l 604.0528,-44.1015 71.9453,24.0137 c 114.1257,43.9885 200.1047,85.5318 310.1836,130.8867 -195.0039,39.1134 -418.3509,61.3047 -651.1465,61.3047 -473.8873,0 -859.80528,-72.5085 -1073.65617,-219.1231 -67.21116,-48.9345 -94.92935,-90.4471 -98.59766,-117.3144 -1.83776,-13.4601 0.79266,-24.0851 8.51368,-35.7735 7.72102,-11.6884 21.34977,-23.9741 40.98242,-35.375 68.71426,-39.903 206.83825,-64.6115 366.72265,-65.5176 z" /><path
             id="SvgjsPath1005"
             style="fill:#231f20;fill-opacity:1;fill-rule:nonzero;stroke:none;stroke-width:0.999997"
             d="m 1714.3593,1619.7564 c -488.1399,0 -873.37128,-83.9386 -1111.11327,-234.6387 l -0.14648,-0.03 c -362.3909,-233.14 -7.08467,-465.8891 497.15335,-459.8291 l 0.3367,0.015 c 380.7801,12.03 609.8178,91.8222 730.9278,125.7422 l 364.1016,-154.8633 66.5917,23.7891 -73.5498,209.1065 -207.0702,-48.2081 -5.8155,7.8516 c 0,0 398.9424,175.4086 488.8623,221.3086 209.1,106.76 288.7867,179.6094 316.5967,212.1094 24.85,29.01 -59.997,50.7128 -216.167,-2.8271 -221.99,-76.1101 -327.6498,-136.1542 -501.0498,-202.9542 l -77.417,-25.8398 -609.126,44.4726 -115.2832,-44.1357 352.1924,-128.5254 c -51.72,-26.68 -251.1391,-111.3989 -585.2051,-127.3389 l -0.2047,0.045 c -382.75799,-14.07 -683.32769,95.2758 -402.84668,299.1358 l 0.0879,0.045 c 222.207,152.41 611.64458,223.6523 1088.14458,223.6523 240.78,0 471.6014,-23.4898 672.2314,-65.0098 31.95,12.8901 66.3991,26.2489 104.209,40.0489 -225.43,55.36 -492.4204,86.8799 -776.4404,86.8799 z m 1049.0186,-175.415 c -14.68,-14.45 -33.1951,-29.71 -53.7451,-45 282.54,-108.11 472.7418,-339.104 474.3018,-505.2539 1.9193,-210.59935 -233.0095,-474.40226 -633.6621,-509.95608 l 64.8339,409.95121 H 2334.7207 L 1670.8388,114.02888 h 209.1797 l 499.2334,511.39164 -46.3036,-240.07328 h -128.4669 l -110.581,-114.624 h 220.9717 l -22.3536,-156.69436 h 215.0391 l 26.6309,168.39841 c 454.3205,67.86023 733.1794,347.74358 716.1914,628.96001 -11.17,185.18 -197.9319,415.6341 -487.002,532.9541 z M 1470.9902,794.08263 807.10833,114.02888 H 1016.288 l 499.2334,511.39164 -46.289,-240.07328 h -128.5108 l -110.5224,-114.624 h 220.9131 l -22.3536,-156.69436 h 215.0538 l 107.5488,680.05375 z M 1065.6825,793.39413 544.71086,792.38335 177.2841,114.02888 h 598.19826 l 70.48828,114.58006 H 480.52142 l 82.80761,153.55958 h 241.61134 l 65.31738,115.45897 H 625.57024 l 97.69044,181.14263 H 995.20892 Z M 2653.2363,231.81699 c -34.92,0 -63.1494,-27.51075 -63.1494,-61.01078 0,-33.87098 28.2232,-61.04003 62.7832,-61.04003 35.27,0 62.4316,27.16905 62.4316,61.04003 0,33.50003 -27.1554,61.01078 -62.0654,61.01078 z m -0.7178,-15.1758 c 25.7601,0 44.4434,-20.80395 44.4434,-45.83498 0,-25.41098 -18.6918,-46.1976 -44.0918,-45.8496 -25.4,0 -44.0918,20.4324 -44.0918,45.48338 0,25.39102 18.7002,46.2012 43.7402,46.2012 z m 0,-16.93358 c -11.2899,0 -20.8026,-1.40242 -24.6826,-2.10937 v -55.37116 h 17.2852 v 20.09768 h 5.6397 c 5.6499,0 8.4514,-2.4606 9.5214,-8.1006 1.41,-5.29695 2.4881,-9.87608 4.248,-11.99708 h 19.0284 c -1.06,1.761 -2.1219,5.29433 -3.8819,13.40333 -1.7599,7.76903 -5.2839,12.35115 -11.2939,14.12115 v 0.6885 c 7.41,2.12903 12.7002,7.0566 12.7002,12.68558 0,5.652 -2.4512,9.88372 -5.9912,12.0117 -4.23,2.80905 -9.5133,4.57035 -22.5733,4.57035 z m -1.0547,-11.99707 c 6,0 9.8877,-2.44125 9.8877,-7.03125 0,-4.242 -3.8808,-6.70898 -10.5907,-6.70898 h -4.9512 v 13.38863 c 1.41,0 3.5343,0.35175 5.6542,0.35175 z" /></g></g></g></svg>
  <style
     id="style846">@media (prefers-color-scheme: light) { :root { filter: none; } }
@media (prefers-color-scheme: dark) { :root { filter: contrast(0.3846153846153846) brightness(4.5); } }
</style>
</svg>
