<svg xmlns="http://www.w3.org/2000/svg" xml:space="preserve" viewBox="0 0 1639.573 895.587"><g fill="#323232" fill-rule="evenodd"><path d="M857.938 0c-15.338-.026-27.568 4.727-36.68 14.258l-234.395 222.28s-42.767 47.302-128.309 141.925c-24.96 9.975-60.09 26.73-105.394 50.248-99.988-9.01-168.357-11.369-205.102-7.072-7.545 1.311-18.66 6.863-33.34 16.67-48.56 1.27-74.999 4.464-79.312 9.598 4.218 14.48 24.761 32.336 61.63 53.554-.05 13.903 1.167 26.356 3.647 37.356a86.353 86.353 0 0 0 3.912 12.642c-9.32 88.103-37.087 120.365-62.1 84.47 3.315 23.132 14.728 40.706 30.212 44.56 7.03 1.746 15.242 5.026 23.328-2.92 12.141-17.47 18.518-44.325 19.135-80.553v-.023c.156-27.088-1.92-54.904-6.233-83.463 7.435 25.05 12.792 48.436 16.09 70.191 22.38 25.23 55.127 43.968 82.647 57.67l-99.012 106.08c-8.224 21.92 35.097 38 51.02 44.453 101.706 18.188 152.56 27.28 152.56 27.28 7.748-11.44 11.623-17.174 11.623-17.174 60.514-25.467 118.606-56.279 164.18-83.346 10.312 2.173 19.202 5.425 35.36 7.826-24.24 46.48-37.88 71.986-37.88 71.986-34.908-6.333-63.2-1.45-84.867 14.655-5.064 7.667-5.903 13.734-2.525 18.187 13.138 19.2 19.707 28.785 19.707 28.785 2.582 3.493 6.286 5.521 11.113 6.067 15.427 32.654 56.18 39.895 81.334 12.63 36.708.331 55.062.505 55.062.505 7.118-9.387 11.665-17.467 13.64-24.24-.9-13.227-5.279-22.656-13.134-28.296-30.648-12.12-45.972-18.185-45.972-18.185l45.466-68.2c344.422 25.6 568.892 40.253 673.391 43.96-18.86 37.72-28.29 56.574-28.29 56.574-2.05 11.788 10.086 20.04 36.382 24.76 28.11 6.986 65.312 13.734 111.64 20.2 95.307-58.599 142.961-87.894 142.961-87.894l36.368-3.04c4.868-3.026 5.705-13.466 2.54-31.32a365239.91 365239.91 0 0 0 65.661-101.534c4.868-7.974 4.198-13.866-2.01-17.68l-16.67-2.52c34.01-75.108 51.03-112.654 51.03-112.654 3.236-9.533.041-15.426-9.598-17.693l-92.95-30.3c-17.38-3.698-33.046.012-46.996 11.116l-140.17 108.852c-15.72 10.467-35.754 17.88-60.125 22.24-210.477-24.92-315.703-37.389-315.703-37.389a372164.008 372164.008 0 0 1-96.492-31.826c-38.335-30.666-66.792-51.218-85.36-61.625-2.022-8.077-3.04-12.123-3.04-12.123l141.955-152.04s45.631-90.257 136.906-270.77C1010.38 34.875 946.236 16.183 874.31 1.62 868.507.55 863.05.01 857.937 0zm-8.07 17.805c53.98 5.338 116.611 19.82 187.92 43.443-61.195-15.657-118.28-25.417-171.235-29.29-10.389 1.26-20.476 5.803-30.303 13.632 0 0-74.758 71.733-224.293 215.197 0 0-40.41 38.57-109.113 117.707 1.461 6.53 11.533 16.055 20.712 26.786-29.228-8.8-44.89-16.384-46.982-22.735 0 0 40.578-44.456 121.736-133.379 0 0 76.447-73.073 229.33-219.234 7.706-7.87 15.123-11.908 22.227-12.127zM632.954 260.811c9.203-.122 22.174 2.86 38.91 8.941-21.31-2.08-33.436-2.258-36.373-.506-.394 10.224-1.573 17.628-3.535 22.227L557.824 423.03c69.22 15.698 110.605 25.758 179.1 42.963 12.646 3.175 34.477 8.145 36.996 21.572l-28.633-6.79c23.65 7.98 42.525 20.052 62.37 33.74 22.64 15.63 45.154 33.2 57.267 46.786a787652.98 787652.98 0 0 1 101.28 36.627c213.501 26.948 320.272 40.414 320.272 40.414 29.892-4.934 52.97-13.013 69.215-24.254A1470891.46 1470891.46 0 0 1 1502.21 500.95c8.048-7.857 17.983-10.225 29.795-7.077a149180.58 149180.58 0 0 0 66.683 22.735c-46.795 72.748-79.302 122.508-79.302 122.508 48.67 10.44 73.02 15.666 73.02 15.666-16.576 2.693-32.903 2.026-48.999-2.028l-73.252-16.16c-10.676-3.212-23.13-.012-37.393 9.6-81.149 44.787-121.744 67.187-121.744 67.187 21.242 22.267 174.288 39.653 211.707 44.16 1.684 14.893 3.257 22.521.465 21.508-60.07-.227-165.8-7.774-317.164-22.629-123.126-11.639-292.185-36.45-455.824-64.865-2.094 4.68-5.475 8.961-10.197 12.854 0 0-15.984-.667-47.987-2.014.905-1.294 1.073-3.226.506-5.813-6.784-2.254-37.177-7.987-91.183-17.173-1.455-.173-4.152 1.852-8.084 6.066-8.633-8.933-14.84-17.667-18.63-26.2C414.193 628.007 280.54 596.647 233.2 576.3c-51.308-22.04-102.186-51.728-107.537-86.15.398-3.696 3.692-7.46 14.467-13.893 4.837-3.449 8.456-7.403 10.857-11.865 1.058-6.707 1.731-13.949 2.022-21.723.297-5.98-5.175-8.265-16.42-6.814 11.08-3.025 18.322-4.777 21.726-5.283 51.64-1.205 126.91 3.338 225.813 13.63 14.276 10.293 36.813 21.064 67.607 32.315 9.604 3.504 14.528 3.26 21-6.65 15.517-24.993 23.567-41.54 25.56-51.915.608-3.298.525-6.118-.25-8.459l45.247 10.252 74.015-130.804c2.372-7.008 2.707-14.427 1.01-22.215 2.601-3.85 7.48-5.82 14.64-5.916zM463.963 401.118c-20.708 7.555-37.572 24.062-51.55 36.996-2.412 2.244 5.863 10.141 9.975 14.535-12.793-6.077-32.76-20.038-29.289-22.803 19.96-13.44 50.283-26.799 70.864-28.728zm61.002 23.847c-4.472.18-8.282 3.334-11.43 9.453-6.4 21.05-9.602 31.575-9.602 31.575-1.01 6.391.838 10.881 5.55 13.496l29.066-51.368-11.627-3.05a10.711 10.711 0 0 0-1.957-.106zm27.88 6.906-22.156 39.323-71.166 123.427c-6.928 8.828-14.709 13.88-23.34 15.147-7.013-.026-9.74 1.48-8.185 4.547 10.435 10.64 24.48 12.866 42.13 6.68 3.368-4.134 3.267-10-.3-17.586l68.342-115.666 98.12 26.496c9.095 1.6 14.651 0 16.671-4.79 0 0 1.35-14.234 4.04-42.689.688-5.105-3.185-8.636-11.618-10.62l-92.54-24.269zm-455.498 16.15c13.65 0 27.362.5 38.495 1.206 2.45 8.718-6.31 17.888-22.737 23.486 0 0-31.814-7.789-50.03-14.5 2.57 4.437 6.83 10.733 12.856 18.983-12.48-9.029-20.698-17.282-24.666-24.748-.448-.46-.678-.887-.646-1.278h.006c11.733-2.308 29.176-3.145 46.722-3.148zm592.616 22.905c-4.782.048-8.025 2.36-9.727 6.947-2.528 23.911-3.79 35.873-3.79 35.873-.123 6.762 2.991 11.045 9.347 12.88 0 0 36.452 7.902 109.37 23.743 25.607 2.586-.849-33.475-7.952-40.29-11.908-13.468-43.526-25.376-95.106-39.036a17.265 17.265 0 0 0-2.142-.117zm-64.957 152.95c-25.97 1.107-44.206 8.12-54.71 21.066.077 3.08 1.442 5.505 4.094 7.28l-.607-4.548c49.27.04 106.76 12.16 172.463 36.375-.698-13.588-2.287-21.668-2.287-21.668-43.267-22.253-81.204-34.879-118.953-38.506zm-400.114 26.158c72.065 23.546 162.9 47.842 237.817 59.082-62.916-6.173-128.08-18.414-195.498-36.72l-6.907 5.173c-21.298-6.147-40.3-8.015-57.005-5.588zm-34.81 38.27c40.701-.218 116.964 19.916 136.45 33.544-4.412 7.786-8.707 14.108-12.88 18.947-11.454.52-28.208.28-50.266-.76 2.746-.292 7.21-1.468 13.39-3.535-19.787-7.492-67.415-18.746-86.51-17.798-2.548 3.16-1.2 9.492-.165 11.36l-27.084 20.253c-3.527 4.72-6.895 9.773 5.557 21.467l116.19 31.574s-40.08-7.415-120.235-22.24c0 0-9.008-5.548-27.025-16.668-9.598-6.2-11.284-13.027-5.055-20.454l33.041-33.585c3.145 3.706 7.282 7.147 12.408 10.306-3.357-5.626-16.827-24.346-9.178-28.68 4.47-2.547 11.97-3.682 21.362-3.732zm416.806.2c4.968.665 7.454 1.012 7.454 1.012 5.35 14.787 14.483 24.546 27.406 29.293-24.695 1.2-42.777-23-34.86-30.307zM199.713 725.62c1.727.022 3.085.454 4.07 1.295 3.593 10.88 8.01 18.027 13.26 21.467-11.567-3.96-18.512-11.414-20.84-22.36 1.303-.28 2.473-.415 3.51-.4zm332.828 4.48c8.082 1.348 12.123 2.028 12.123 2.028-35.026 57.92-52.535 86.88-52.535 86.88-3.43 6.613-7.47 10.573-12.123 11.88 8.536.96 14.513-.894 17.931-5.56 28.79 8.013 52.196 17.52 70.22 28.546-2.373 5.92-4.422 9.6-8.399 15.028-7.98.893-23.956.772-40.672 1.052 1.962-2.373 2.451-3.973 3.855-8-26.72-9.466-53.998-15.106-81.836-16.92-4.976-1.28-10.783.908-17.427 6.561-13.198-16.133-19.26-26.48-18.186-31.066 2.452-8.64 28.553-9.574 78.303-2.774 0 0 16.248-29.227 48.746-87.654zm724.592 52.106c59.66 8.441 176.107 20.987 234.906 12.641-42.936 8.84-91.59 11.042-146.01 6.56 0 0-15.493 16.173-46.467 48.493 6.077 3.84 24.595 10.574 55.57 20.215-32.85-3.8-70.064-8.96-101.83-18.426-16.823-5.014-24.817-9.814-23.968-14.414 0 0 9.267-18.362 27.8-55.069zM443.761 856.23c1.17.034 2.5.405 3.995 1.113 3.525 11.507 9.332 20.56 17.425 27.16-10.84-2.226-19.766-10.093-26.773-23.613.997-3.18 2.782-4.736 5.353-4.66z"/><path d="M1331.671 685.156c-188.493-36.68-374.333-76.387-561.373-119.28-85.92-19.707-170.187-37.747-252.807-54.107l-12.94 23.36c243.254 55.053 483.96 117.64 726.947 178.467 49.48 12.386 51.24 2 100.173-28.44zm-90.04 43.346c-218.04-52.186-497.066-122.52-748.654-181.026l-5.554 10.506c151.727 37.48 324.448 83.32 515.608 136.934 58.88 16.52 188.92 42.733 238.6 33.586zM474.071 543.09c-110.54-25.587-215.296-48.693-306.613-66.773-10.439-.734-22.056 3.813-34.857 13.64l2.73 5.16c11.66-7.24 22.167-10.68 31.523-10.307 87.825 17.893 188.728 40.827 301.596 68.507zm19.916-35.933c-110.073-21.454-217.2-39.92-321.378-55.387-4.875.2-9.624.8-14.246 1.813-.257 7.227-1.066 11.667-2.425 13.347 7.057-1.933 12.212-2.333 15.461-1.227 104.035 19.547 207.218 41.174 309.924 64.2l12.664-22.746"/><path d="M158.306 247.342c68.115 5.987 109.41 110 92.243 232.334-17.17 122.32-86.302 216.64-154.419 210.653-68.115-5.987-109.41-110-92.243-232.32 17.17-122.333 86.303-216.64 154.42-210.667zM150.4 267.01c61.548 5.413 98.866 99.4 83.348 209.933-15.513 110.534-77.98 195.747-139.529 190.347-61.548-5.413-98.864-99.4-83.348-209.933C26.38 346.822 88.851 261.61 150.4 267.01"/><path d="M106.728 454.33c-1.329-14.294-8.38-176.334 67.534-180.28-10.975-17.694-57.408-12.548-67.815 8.986-17.817 36.853-20.574 101.213.28 171.293"/></g></svg>